<svg width="24" height="24" viewBox="0 0 24 24" fill="none" xmlns="http://www.w3.org/2000/svg">
<path d="M7.01438 7.86563C5.19375 10.2056 5.22563 14.3625 7.5525 16.4231C10.1944 18.7612 13.9125 18.7369 16.2506 16.5863C19.0538 14.0063 18.8925 9.7125 16.4138 7.28063C13.9219 4.83563 9.46875 4.70813 7.01438 7.86563Z" fill="#FCC11A"/>
<path d="M9.9375 7.06312C9.2175 6.74437 8.43 7.6125 8.08688 8.205C7.74375 8.79937 7.425 9.96375 8.15625 10.2619C8.8875 10.5581 9.4125 10.0556 9.93938 9.1875C10.4625 8.31937 10.7606 7.42875 9.9375 7.06312Z" fill="#FEE269"/>
<path d="M11.8125 3.80063C11.6381 4.12688 11.6962 4.37813 12.0431 4.46063C12.39 4.54313 14.5481 4.89375 14.73 4.905C14.9944 4.92188 15.0919 4.72313 15.06 4.4925C15.0262 4.26188 14.4994 1.03125 14.4506 0.735001C14.4019 0.438751 14.0887 0.142501 13.7906 0.538126C13.4925 0.933751 11.9437 3.555 11.8125 3.80063ZM17.4 6.04313C17.0606 6.14813 17.07 6.35625 17.2519 6.62063C17.4337 6.885 18.6862 8.79562 18.8006 8.92875C18.9169 9.06 19.1137 9.09375 19.2787 8.895C19.4437 8.69812 21.5025 5.81063 21.6525 5.63063C21.9 5.33438 21.7519 5.02125 21.3731 5.11875C21.0844 5.19563 17.6137 5.9775 17.4 6.04313ZM19.9875 11.5987C19.7437 11.46 19.4269 11.4994 19.3444 11.8125C19.2619 12.1256 18.9 14.4 18.8662 14.5988C18.8325 14.7975 18.9825 14.9944 19.2281 14.9456C19.4737 14.8969 22.875 14.3925 23.1019 14.3363C23.4975 14.2369 23.6287 13.8412 23.2181 13.545C22.9519 13.3519 20.2181 11.73 19.9875 11.5987ZM17.2669 16.9875C17.5294 16.8469 17.7619 16.9538 17.8275 17.2519C17.8931 17.5481 18.6187 20.5819 18.735 21.1425C18.7931 21.4238 18.4706 21.6544 18.2081 21.4894C17.9437 21.3244 15.0787 19.3275 14.895 19.1644C14.6306 18.9337 14.8144 18.6938 14.9437 18.5719C15.2062 18.3225 17.0194 17.1206 17.2669 16.9875ZM9.28875 18.6525C8.95687 18.6206 8.85937 18.9169 8.91 19.1794C8.95875 19.4438 9.45375 22.7869 9.4875 23.0362C9.53625 23.3981 9.91687 23.5481 10.1625 23.1844C10.4081 22.8206 12.1031 20.1094 12.24 19.8544C12.4875 19.3931 12.3056 19.2938 12.0581 19.1794C11.8125 19.065 9.63562 18.6863 9.28875 18.6525ZM4.54312 14.8125C4.77375 14.4338 5.07 14.5331 5.28562 14.895C5.43187 15.1425 6.66937 16.8075 6.78562 16.9875C6.90187 17.1694 6.95062 17.5144 6.58875 17.5969C6.22312 17.6812 3.27375 18.4556 2.8125 18.5381C2.35125 18.6206 2.08687 18.2587 2.38312 17.8631C2.55562 17.6306 4.41187 15.0281 4.54312 14.8125ZM3.91687 11.9437C4.33875 12.1312 4.5375 12.0637 4.62562 11.7619C4.74187 11.3662 5.08687 9.55312 5.10375 9.14063C5.115 8.8725 5.00437 8.61375 4.59187 8.67938C4.17937 8.745 1.21312 9.15937 0.834374 9.29062C0.393749 9.44437 0.425624 9.92813 0.718124 10.0819C1.065 10.2638 3.61875 11.8125 3.91687 11.9437ZM9.04312 5.02125C9.28125 4.83188 9.20812 4.56 8.99437 4.41188C8.78062 4.26375 6.13312 2.34938 5.7975 2.08688C5.50125 1.85625 5.1375 1.93875 5.23687 2.46563C5.30812 2.84438 6.15187 6.15938 6.21 6.38813C6.27562 6.6525 6.47437 6.78375 6.705 6.61875C6.93187 6.45563 8.79562 5.22 9.04312 5.02125Z" fill="#FFA722"/>
</svg>
