<svg width="22" height="22" viewBox="0 0 22 22" fill="none" xmlns="http://www.w3.org/2000/svg">
<path d="M0 22V19.8C0.696667 19.8 1.21477 19.6167 1.5543 19.25C1.89383 18.8833 2.60407 18.7 3.685 18.7C4.76593 18.7 5.47177 18.8833 5.8025 19.25C6.13323 19.6167 6.64657 19.8 7.3425 19.8C8.03843 19.8 8.55177 19.6167 8.8825 19.25C9.21323 18.8833 9.91907 18.7 11 18.7C12.045 18.7 12.7556 18.8833 13.1318 19.25C13.508 19.6167 14.0257 19.8 14.685 19.8C15.3817 19.8 15.895 19.6167 16.225 19.25C16.555 18.8833 17.2608 18.7 18.3425 18.7C19.4242 18.7 20.13 18.8833 20.46 19.25C20.79 19.6167 21.3033 19.8 22 19.8V22C20.9367 22 20.2308 21.8167 19.8825 21.45C19.5342 21.0833 19.0208 20.9 18.3425 20.9C17.6642 20.9 17.1508 21.0833 16.8025 21.45C16.4542 21.8167 15.7483 22 14.685 22C13.6217 22 12.9114 21.8167 12.5543 21.45C12.1972 21.0833 11.6791 20.9 11 20.9C10.3033 20.9 9.79 21.0833 9.46 21.45C9.13 21.8167 8.42417 22 7.3425 22C6.26083 22 5.555 21.8167 5.225 21.45C4.895 21.0833 4.38167 20.9 3.685 20.9C3.00667 20.9 2.49333 21.0833 2.145 21.45C1.79667 21.8167 1.08167 22 0 22ZM0 17.05V14.85C0.696667 14.85 1.21 14.6667 1.54 14.3C1.87 13.9333 2.57583 13.75 3.6575 13.75C3.7675 13.75 3.8775 13.7548 3.9875 13.7643C4.0975 13.7738 4.19833 13.7874 4.29 13.805L3.245 9.955L1.7325 11.935L0 10.56L8.5525 0L21.23 4.84L20.4325 6.9025L18.1225 5.9675L20.35 14.245C20.6067 14.3917 20.8586 14.5292 21.1057 14.6575C21.3528 14.7858 21.6509 14.85 22 14.85V17.05C20.955 17.0317 20.2492 16.8436 19.8825 16.4857C19.5158 16.1278 19.0025 15.9493 18.3425 15.95C17.6458 15.95 17.1325 16.1333 16.8025 16.5C16.4725 16.8667 15.7667 17.05 14.685 17.05C13.64 17.05 12.9298 16.8667 12.5543 16.5C12.1788 16.1333 11.6607 15.95 11 15.95C10.3033 15.95 9.79 16.1333 9.46 16.5C9.13 16.8667 8.42417 17.05 7.3425 17.05C6.2975 17.05 5.59167 16.8667 5.225 16.5C4.85833 16.1333 4.345 15.95 3.685 15.95C3.04333 15.95 2.53 16.1333 2.145 16.5C1.76 16.8667 1.045 17.05 0 17.05ZM14.795 14.8225L13.255 8.9925L8.9925 10.12L10.01 13.86C10.1567 13.8233 10.3081 13.7958 10.4643 13.7775C10.6205 13.7592 10.7991 13.75 11 13.75C12.045 13.75 12.7923 13.9517 13.2418 14.355C13.6913 14.7583 14.2091 14.9142 14.795 14.8225Z" fill="#1E90FF"/>
</svg>
