<svg width="19" height="19" viewBox="0 0 19 19" fill="none" xmlns="http://www.w3.org/2000/svg">
<path d="M18.2159 14.5361L13.9815 10.6861C13.7815 10.504 13.5184 10.4068 13.248 10.4151C12.9776 10.4235 12.721 10.5367 12.5326 10.7309L10.0399 13.2945C9.43988 13.1799 8.23363 12.8038 6.99196 11.5653C5.75029 10.3226 5.37425 9.11322 5.26279 8.51739L7.82425 6.02364C8.01843 5.83523 8.13168 5.57866 8.14004 5.30823C8.1484 5.0378 8.05121 4.77472 7.86904 4.57468L4.02008 0.341346C3.83784 0.140676 3.58454 0.0189545 3.31399 0.00203311C3.04345 -0.0148883 2.77696 0.0743233 2.57113 0.250721L0.310711 2.18926C0.130618 2.37001 0.0231266 2.61057 0.00862703 2.8653C-0.00699797 3.12572 -0.304914 9.29447 4.47842 14.0799C8.65133 18.2518 13.8784 18.557 15.318 18.557C15.5284 18.557 15.6576 18.5507 15.692 18.5486C15.9465 18.5336 16.1866 18.4258 16.367 18.2455L18.3045 15.9841C18.4816 15.7789 18.5714 15.5126 18.5549 15.2421C18.5383 14.9715 18.4167 14.7182 18.2159 14.5361Z" fill="black"/>
</svg>
