<svg width="80" height="79" viewBox="0 0 80 79" fill="none" xmlns="http://www.w3.org/2000/svg">
<path d="M24.0684 39.6951C30.1651 39.6951 35.1075 34.7527 35.1075 28.656C35.1075 22.5593 30.1651 17.6169 24.0684 17.6169C17.9717 17.6169 13.0294 22.5593 13.0294 28.656C13.0294 34.7527 17.9717 39.6951 24.0684 39.6951Z" fill="#6CB1F2"/>
<path d="M36.6407 45.8279C32.3232 43.6354 27.558 42.7615 24.0684 42.7615C17.2334 42.7615 3.21686 46.9533 3.21686 55.3337V61.7732H26.2149V59.3093C26.2149 56.3962 27.4415 53.4755 29.588 51.0408C31.3005 49.0967 33.6985 47.2921 36.6407 45.8279Z" fill="#6CB1F2"/>
<path d="M52.8926 44.6013C44.9093 44.6013 28.9747 49.5321 28.9747 59.3201V66.6794H76.8106V59.3201C76.8106 49.5321 60.876 44.6013 52.8926 44.6013Z" fill="#6CB1F2"/>
<path d="M52.8926 39.6951C60.3442 39.6951 66.3848 33.6544 66.3848 26.2029C66.3848 18.7514 60.3442 12.7107 52.8926 12.7107C45.4411 12.7107 39.4005 18.7514 39.4005 26.2029C39.4005 33.6544 45.4411 39.6951 52.8926 39.6951Z" fill="#6CB1F2"/>
</svg>
