<svg width="15" height="21" viewBox="0 0 15 21" fill="none" xmlns="http://www.w3.org/2000/svg">
<path d="M14.5833 7.29167C14.5833 6.33411 14.3947 5.38593 14.0283 4.50127C13.6618 3.6166 13.1247 2.81277 12.4477 2.13568C11.7706 1.45859 10.9667 0.921486 10.0821 0.555045C9.1974 0.188604 8.24922 0 7.29167 0C6.33411 0 5.38593 0.188604 4.50127 0.555045C3.6166 0.921486 2.81277 1.45859 2.13568 2.13568C1.45859 2.81277 0.921485 3.6166 0.555045 4.50127C0.188604 5.38593 -1.42687e-08 6.33411 0 7.29167C0 8.73646 0.426042 10.0802 1.15104 11.2135H1.14271L7.29167 20.8333L13.4406 11.2135H13.4333C14.1843 10.0433 14.5834 8.68211 14.5833 7.29167ZM7.29167 10.4167C6.46286 10.4167 5.66801 10.0874 5.08196 9.50138C4.49591 8.91532 4.16667 8.12047 4.16667 7.29167C4.16667 6.46286 4.49591 5.66801 5.08196 5.08196C5.66801 4.49591 6.46286 4.16667 7.29167 4.16667C8.12047 4.16667 8.91532 4.49591 9.50138 5.08196C10.0874 5.66801 10.4167 6.46286 10.4167 7.29167C10.4167 8.12047 10.0874 8.91532 9.50138 9.50138C8.91532 10.0874 8.12047 10.4167 7.29167 10.4167Z" fill="black"/>
</svg>
