<svg width="78" height="70" viewBox="0 0 78 70" fill="none" xmlns="http://www.w3.org/2000/svg">
<path d="M62.823 3.66496C65.3523 5.65248 67.0953 8.86278 67.8081 12.2245L68.0598 12.3254L75.981 15.9977C76.4234 16.2018 76.7985 16.5284 77.062 16.9389C77.3255 17.3495 77.4665 17.827 77.4684 18.3151V66.3222C77.4655 66.721 77.3705 67.1137 77.1908 67.4695C77.0111 67.8253 76.7516 68.1346 76.4326 68.373C76.1137 68.6115 75.7439 68.7726 75.3524 68.8438C74.9608 68.9149 74.5582 68.8943 74.1759 68.7833L52.2175 62.5723L26.1107 69.7848C25.6398 69.9153 25.1417 69.9099 24.6737 69.7693L1.836 62.9566C1.30813 62.8012 0.844365 62.4793 0.513597 62.0388C0.182829 61.5982 0.00271007 61.0624 0 60.511L0 11.6422C0 9.93418 1.65782 8.70751 3.31177 9.18886L25.398 15.6366L36.6232 12.1934C36.7781 12.1468 36.9356 12.1145 37.0957 12.0964C37.5295 9.54987 38.7419 7.1043 40.7755 4.72083C43.1886 1.88706 47.4222 0.225625 51.5474 0.0276502C55.8276 -0.178089 59.0967 0.738032 62.8191 3.66108M5.16327 15.0699V58.605L24.0268 64.2299V20.5705L5.16327 15.0699ZM36.9602 17.4534L29.1901 19.8329V63.6165L48.8089 58.2052V45.4145C48.8089 44.0014 49.9671 42.8563 51.3925 42.8563C52.8179 42.8563 53.9722 44.0015 53.9722 45.4183V57.751L72.3051 62.9333V19.9416L67.9669 17.9231C67.8946 18.3501 67.8003 18.768 67.6841 19.1769C66.845 22.1546 65.4316 24.9386 63.524 27.3715L53.9296 39.3781C53.677 39.6938 53.3543 39.9461 52.9873 40.1149C52.6204 40.2836 52.2191 40.3642 51.8156 40.3503C51.412 40.3364 51.0173 40.2282 50.6628 40.0345C50.3083 39.8408 50.0037 39.5669 49.7734 39.2345L40.8065 26.2186C39.3242 24.1509 38.29 22.2928 37.7038 20.6443C37.3353 19.6125 37.0858 18.5419 36.9602 17.4534ZM51.7953 5.14395C48.9832 5.27982 46.0937 6.41332 44.7186 8.0243C43.0647 9.96523 42.2512 11.7819 42.0886 13.622C41.8949 15.8385 42.0266 17.4029 42.5766 18.9518C42.9833 20.0969 43.7929 21.5487 45.044 23.2994L52.0587 33.4777L59.457 24.2195C60.9505 22.3085 62.0571 20.1235 62.7145 17.7872C63.6441 14.5264 62.2419 9.7362 59.6158 7.67881C56.9237 5.56319 54.8902 4.99256 51.7992 5.14395M52.3337 7.84961C56.61 7.84961 60.0806 11.2851 60.0806 15.5241C60.0673 17.5708 59.244 19.5286 57.7915 20.9675C56.339 22.4065 54.3761 23.2088 52.3337 23.1985C48.0575 23.1985 44.5869 19.7631 44.5869 15.5241C44.5869 11.2851 48.0575 7.84961 52.3337 7.84961ZM52.3337 12.9659C51.9965 12.9639 51.6622 13.0284 51.3498 13.1559C51.0374 13.2833 50.7532 13.4712 50.5133 13.7087C50.2734 13.9463 50.0825 14.2289 49.9516 14.5403C49.8206 14.8518 49.7522 15.1861 49.7502 15.5241C49.7502 16.9371 50.9083 18.0822 52.3337 18.0822C52.671 18.0838 53.0052 18.0187 53.3174 17.8908C53.6296 17.7628 53.9135 17.5746 54.1531 17.3366C54.3926 17.0987 54.5831 16.8159 54.7135 16.5042C54.844 16.1925 54.9119 15.8582 54.9134 15.5202C54.9083 14.839 54.6339 14.1875 54.1503 13.7087C53.6668 13.2299 53.0135 12.9628 52.3337 12.9659Z" fill="#6CB1F2"/>
</svg>
