<svg width="73" height="62" viewBox="0 0 73 62" fill="none" xmlns="http://www.w3.org/2000/svg">
<path d="M41.1787 2.58995L72.2762 54.2301C72.7504 55.0176 73 55.9108 73 56.8201C73 57.7293 72.7504 58.6226 72.2762 59.41C71.8021 60.1974 71.1201 60.8513 70.2988 61.306C69.4775 61.7606 68.5459 62 67.5975 62H5.40249C4.45414 62 3.52251 61.7606 2.70122 61.306C1.87994 60.8513 1.19794 60.1974 0.72378 59.41C0.249617 58.6226 -6.02301e-06 57.7293 1.08996e-10 56.8201C6.02323e-06 55.9108 0.249641 55.0176 0.723814 54.2301L31.8213 2.58995C33.8995 -0.863317 39.0969 -0.863317 41.1787 2.58995ZM36.5 43.5181C35.5448 43.5181 34.6286 43.8819 33.9532 44.5295C33.2777 45.1772 32.8982 46.0555 32.8982 46.9714C32.8982 47.8872 33.2777 48.7656 33.9532 49.4132C34.6286 50.0608 35.5448 50.4246 36.5 50.4246C37.4552 50.4246 38.3714 50.0608 39.0468 49.4132C39.7223 48.7656 40.1017 47.8872 40.1017 46.9714C40.1017 46.0555 39.7223 45.1772 39.0468 44.5295C38.3714 43.8819 37.4552 43.5181 36.5 43.5181ZM36.5 19.3452C35.6178 19.3453 34.7663 19.6559 34.1071 20.2179C33.4478 20.78 33.0267 21.5544 32.9235 22.3945L32.8982 22.7985V36.6116C32.8993 37.4917 33.2508 38.3383 33.881 38.9783C34.5112 39.6183 35.3725 40.0035 36.2889 40.0551C37.2054 40.1067 38.1077 39.8208 38.8117 39.2559C39.5157 38.6909 39.9681 37.8896 40.0765 37.0156L40.1017 36.6116V22.7985C40.1017 21.8826 39.7223 21.0043 39.0468 20.3567C38.3714 19.709 37.4552 19.3452 36.5 19.3452Z" fill="#6CB1F2"/>
</svg>
