<svg width="29" height="29" viewBox="0 0 29 29" fill="none" xmlns="http://www.w3.org/2000/svg">
<path d="M14.5015 10.15C13.3478 10.15 12.2413 10.6083 11.4255 11.4241C10.6098 12.2399 10.1515 13.3463 10.1515 14.5C10.1515 15.6537 10.6098 16.7601 11.4255 17.5759C12.2413 18.3917 13.3478 18.85 14.5015 18.85C15.6551 18.85 16.7616 18.3917 17.5774 17.5759C18.3931 16.7601 18.8515 15.6537 18.8515 14.5C18.8515 13.3463 18.3931 12.2399 17.5774 11.4241C16.7616 10.6083 15.6551 10.15 14.5015 10.15ZM14.5015 7.25C16.4243 7.25 18.2683 8.01384 19.628 9.37348C20.9876 10.7331 21.7514 12.5772 21.7514 14.5C21.7514 16.4228 20.9876 18.2669 19.628 19.6265C18.2683 20.9862 16.4243 21.75 14.5015 21.75C12.5786 21.75 10.7346 20.9862 9.37493 19.6265C8.01529 18.2669 7.25145 16.4228 7.25145 14.5C7.25145 12.5772 8.01529 10.7331 9.37493 9.37348C10.7346 8.01384 12.5786 7.25 14.5015 7.25ZM23.9264 6.8875C23.9264 7.36821 23.7355 7.82922 23.3956 8.16913C23.0557 8.50904 22.5947 8.7 22.1139 8.7C21.6332 8.7 21.1722 8.50904 20.8323 8.16913C20.4924 7.82922 20.3014 7.36821 20.3014 6.8875C20.3014 6.4068 20.4924 5.94578 20.8323 5.60587C21.1722 5.26596 21.6332 5.075 22.1139 5.075C22.5947 5.075 23.0557 5.26596 23.3956 5.60587C23.7355 5.94578 23.9264 6.4068 23.9264 6.8875ZM14.5015 2.9C10.9142 2.9 10.3284 2.91015 8.6594 2.9841C7.5226 3.03775 6.7599 3.19 6.0523 3.4655C5.46046 3.68354 4.92525 4.03192 4.4863 4.48485C4.03285 4.92365 3.68396 5.45887 3.4655 6.05085C3.19 6.76135 3.03775 7.5226 2.98555 8.65795C2.91015 10.2588 2.9 10.8185 2.9 14.5C2.9 18.0888 2.91015 18.6731 2.9841 20.342C3.03775 21.4774 3.19 22.2416 3.46405 22.9477C3.71055 23.5785 4.00055 24.0323 4.48195 24.5137C4.9706 25.0009 5.42445 25.2923 6.04795 25.533C6.76425 25.81 7.52695 25.9637 8.65795 26.0159C10.2588 26.0913 10.8185 26.1 14.5 26.1C18.0888 26.1 18.6731 26.0899 20.342 26.0159C21.4759 25.9623 22.2387 25.81 22.9477 25.536C23.5395 25.3179 24.0748 24.9695 24.5137 24.5166C25.0024 24.0294 25.2938 23.5755 25.5345 22.9506C25.81 22.2372 25.9637 21.4745 26.0159 20.3406C26.0913 18.7413 26.1 18.1801 26.1 14.5C26.1 10.9127 26.0899 10.3269 26.0159 8.65795C25.9623 7.52405 25.8086 6.75845 25.5345 6.05085C25.3165 5.45901 24.9681 4.9238 24.5152 4.48485C24.0764 4.0314 23.5411 3.68251 22.9492 3.46405C22.2387 3.18855 21.4759 3.0363 20.342 2.9841C18.7427 2.9087 18.183 2.9 14.5 2.9M14.5 0C18.4397 0 18.9312 0.0144999 20.4783 0.0869999C22.0211 0.1595 23.0738 0.40165 23.9975 0.76125C24.9545 1.12955 25.7607 1.62835 26.5669 2.4331C27.3045 3.15771 27.8751 4.03458 28.2388 5.0025C28.5969 5.92615 28.8405 6.97885 28.913 8.5231C28.9812 10.0688 29 10.5604 29 14.5C29 18.4397 28.9855 18.9312 28.913 20.4769C28.8405 22.0226 28.5969 23.0724 28.2388 23.9975C27.8751 24.9654 27.3045 25.8423 26.5669 26.5669C25.8423 27.3045 24.9654 27.8751 23.9975 28.2388C23.0738 28.5969 22.0211 28.8405 20.4783 28.913C18.9312 28.9812 18.4397 29 14.5 29C10.5604 29 10.0688 28.9855 8.52165 28.913C6.97885 28.8405 5.9276 28.5969 5.0025 28.2388C4.03458 27.8751 3.15771 27.3045 2.4331 26.5669C1.69549 25.8423 1.12493 24.9654 0.76125 23.9975C0.40165 23.0738 0.1595 22.0212 0.0869999 20.4769C0.0173999 18.9312 0 18.4397 0 14.5C0 10.5604 0.0144999 10.0688 0.0869999 8.5231C0.1595 6.9774 0.40165 5.9276 0.76125 5.0025C1.12493 4.03458 1.69549 3.15771 2.4331 2.4331C3.15771 1.69549 4.03458 1.12493 5.0025 0.76125C5.92615 0.40165 6.9774 0.1595 8.52165 0.0869999C10.0703 0.0188499 10.5618 0 14.5015 0" fill="black"/>
</svg>
