<svg width="21" height="21" viewBox="0 0 21 21" fill="none" xmlns="http://www.w3.org/2000/svg">
<path d="M10.4167 15.625C10.7118 15.625 10.9594 15.525 11.1594 15.325C11.3594 15.125 11.459 14.8778 11.4583 14.5833V10.4167C11.4583 10.1215 11.3583 9.87431 11.1583 9.675C10.9583 9.47569 10.7111 9.37569 10.4167 9.375C10.1222 9.37431 9.875 9.47431 9.675 9.675C9.475 9.87569 9.375 10.1229 9.375 10.4167V14.5833C9.375 14.8785 9.475 15.126 9.675 15.326C9.875 15.526 10.1222 15.6257 10.4167 15.625ZM10.4167 7.29167C10.7118 7.29167 10.9594 7.19167 11.1594 6.99167C11.3594 6.79167 11.459 6.54444 11.4583 6.25C11.4576 5.95556 11.3576 5.70833 11.1583 5.50833C10.959 5.30833 10.7118 5.20833 10.4167 5.20833C10.1215 5.20833 9.87431 5.30833 9.675 5.50833C9.4757 5.70833 9.3757 5.95556 9.375 6.25C9.37431 6.54444 9.47431 6.79201 9.675 6.99271C9.8757 7.1934 10.1229 7.29306 10.4167 7.29167ZM10.4167 20.8333C8.9757 20.8333 7.62153 20.5597 6.35417 20.0125C5.08681 19.4653 3.98438 18.7233 3.04688 17.7865C2.10938 16.8497 1.36736 15.7472 0.820835 14.4792C0.274307 13.2111 0.000695763 11.8569 1.31856e-06 10.4167C-0.000693126 8.97639 0.272918 7.62222 0.820835 6.35417C1.36875 5.08611 2.11077 3.98368 3.04688 3.04688C3.98299 2.11007 5.08542 1.36806 6.35417 0.820833C7.62292 0.273611 8.97708 0 10.4167 0C11.8563 0 13.2104 0.273611 14.4792 0.820833C15.7479 1.36806 16.8503 2.11007 17.7865 3.04688C18.7226 3.98368 19.4649 5.08611 20.0135 6.35417C20.5622 7.62222 20.8354 8.97639 20.8333 10.4167C20.8313 11.8569 20.5576 13.2111 20.0125 14.4792C19.4674 15.7472 18.7253 16.8497 17.7865 17.7865C16.8476 18.7233 15.7451 19.4656 14.4792 20.0135C13.2132 20.5615 11.859 20.8347 10.4167 20.8333Z" fill="#0BB4E7"/>
</svg>
