<svg width="21" height="23" viewBox="0 0 21 23" fill="none" xmlns="http://www.w3.org/2000/svg">
<path d="M10.4167 0C16.1698 0 20.8333 4.66354 20.8333 10.4167C20.8333 16.1698 16.1698 20.8333 10.4167 20.8333C4.66354 20.8333 0 16.1698 0 10.4167C0 4.66354 4.66354 0 10.4167 0ZM10.4167 14.5833C10.1404 14.5833 9.87545 14.6931 9.6801 14.8884C9.48475 15.0838 9.375 15.3487 9.375 15.625C9.375 15.9013 9.48475 16.1662 9.6801 16.3616C9.87545 16.5569 10.1404 16.6667 10.4167 16.6667C10.6929 16.6667 10.9579 16.5569 11.1532 16.3616C11.3486 16.1662 11.4583 15.9013 11.4583 15.625C11.4583 15.3487 11.3486 15.0838 11.1532 14.8884C10.9579 14.6931 10.6929 14.5833 10.4167 14.5833ZM10.4167 4.6875C9.4152 4.6875 8.45475 5.08533 7.7466 5.79348C7.03846 6.50162 6.64062 7.46207 6.64062 8.46354C6.64062 8.73981 6.75037 9.00476 6.94572 9.20011C7.14107 9.39546 7.40602 9.50521 7.68229 9.50521C7.95856 9.50521 8.22351 9.39546 8.41886 9.20011C8.61421 9.00476 8.72396 8.73981 8.72396 8.46354C8.7243 8.15629 8.80827 7.85492 8.96686 7.59176C9.12545 7.32859 9.35267 7.11356 9.62417 6.96971C9.89567 6.82586 10.2012 6.75862 10.508 6.7752C10.8148 6.79178 11.1113 6.89155 11.3657 7.06383C11.6202 7.2361 11.8229 7.47437 11.9522 7.75309C12.0815 8.03181 12.1325 8.34047 12.0997 8.64598C12.0669 8.95148 11.9516 9.2423 11.7662 9.48726C11.5807 9.73221 11.332 9.92206 11.0469 10.0365C10.3427 10.3177 9.375 11.0385 9.375 12.2396V12.5C9.375 12.7763 9.48475 13.0412 9.6801 13.2366C9.87545 13.4319 10.1404 13.5417 10.4167 13.5417C10.6929 13.5417 10.9579 13.4319 11.1532 13.2366C11.3486 13.0412 11.4583 12.7763 11.4583 12.5C11.4583 12.2458 11.5104 12.1187 11.7302 12.0104L11.8208 11.9687C12.6342 11.6416 13.3084 11.0416 13.7278 10.2718C14.1473 9.50196 14.2859 8.61019 14.1199 7.74936C13.9539 6.88853 13.4936 6.11225 12.818 5.55361C12.1423 4.99498 11.2934 4.68878 10.4167 4.6875Z" fill="#0BB4E7"/>
</svg>
