<svg width="24" height="24" viewBox="0 0 24 24" fill="none" xmlns="http://www.w3.org/2000/svg">
<mask id="mask0_197_24" style="mask-type:luminance" maskUnits="userSpaceOnUse" x="0" y="0" width="24" height="24">
<path d="M12.4167 22.8333C13.7849 22.835 15.1399 22.5664 16.4039 22.0428C17.6679 21.5192 18.8161 20.751 19.7823 19.7823C20.751 18.8161 21.5192 17.6679 22.0428 16.4039C22.5664 15.1399 22.835 13.7849 22.8333 12.4167C22.835 11.0485 22.5664 9.69346 22.0428 8.42943C21.5192 7.1654 20.751 6.01728 19.7823 5.05105C18.8161 4.08238 17.6679 3.31418 16.4039 2.79059C15.1399 2.26699 13.7849 1.99832 12.4167 2.00001C11.0485 1.99832 9.69346 2.26699 8.42943 2.79059C7.1654 3.31418 6.01728 4.08238 5.05105 5.05105C4.08238 6.01728 3.31418 7.1654 2.79059 8.42943C2.26699 9.69346 1.99832 11.0485 2.00001 12.4167C1.99832 13.7849 2.26699 15.1399 2.79059 16.4039C3.31418 17.6679 4.08238 18.8161 5.05105 19.7823C6.01728 20.751 7.1654 21.5192 8.42943 22.0428C9.69346 22.5664 11.0485 22.835 12.4167 22.8333Z" fill="white" stroke="white" stroke-width="2.08333" stroke-linejoin="round"/>
<path d="M8.25 12.4167L11.375 15.5417L17.625 9.29167" stroke="black" stroke-width="2.08333" stroke-linecap="round" stroke-linejoin="round"/>
</mask>
<g mask="url(#mask0_197_24)">
<path d="M-0.083313 -0.0833282H24.9167V24.9167H-0.083313V-0.0833282Z" fill="#0BB4E7"/>
</g>
</svg>
