<svg width="28" height="22" viewBox="0 0 28 22" fill="none" xmlns="http://www.w3.org/2000/svg">
<path d="M27.7777 19.8816L15.1777 0.631641C14.92 0.238047 14.4764 0 13.9999 0C13.5235 0 13.0799 0.238047 12.8222 0.631641L0.222189 19.8816C0.0862109 20.0894 0.00969981 20.3292 0.000692762 20.576C-0.00831429 20.8228 0.0505151 21.0674 0.171001 21.2841C0.291524 21.5008 0.469241 21.6817 0.685486 21.8076C0.90173 21.9336 1.14852 22 1.39994 22H26.5999C27.1123 22 27.5834 21.7254 27.8289 21.2837C27.9494 21.067 28.0082 20.8225 27.9992 20.5758C27.9902 20.3291 27.9137 20.0893 27.7777 19.8816ZM13.9999 3.91789L17.7358 9.625H13.9999L11.1999 12.375L9.53481 10.7396L13.9999 3.91789Z" fill="#808080"/>
</svg>
